<?xml version="1.0" standalone="no"?>
<!DOCTYPE svg PUBLIC "-//W3C//DTD SVG 20010904//EN"
 "http://www.w3.org/TR/2001/REC-SVG-20010904/DTD/svg10.dtd">
<svg version="1.0" xmlns="http://www.w3.org/2000/svg"
 width="270.000000pt" height="270.000000pt" viewBox="0 0 270.000000 270.000000"
 preserveAspectRatio="xMidYMid meet">
<metadata>
Created by potrace 1.11, written by Peter Selinger 2001-2013
</metadata>
<g transform="translate(0.000000,270.000000) scale(0.100000,-0.100000)"
fill="#000000" stroke="none">
<path d="M1211 2665 c-72 -16 -191 -69 -249 -111 -107 -78 -196 -200 -243
-332 -25 -71 -29 -77 -56 -78 -100 -4 -241 -67 -320 -142 -116 -112 -172 -247
-167 -403 4 -140 54 -257 149 -355 112 -113 224 -158 411 -164 9 0 18 -37 40
-159 2 -8 5 -25 9 -38 5 -22 3 -23 -47 -24 -139 -3 -293 -32 -344 -66 -12 -7
-32 -35 -46 -61 -81 -150 -68 -443 28 -633 19 -38 32 -50 76 -70 50 -22 67
-24 274 -27 211 -3 223 -3 268 19 62 29 154 122 193 196 17 32 42 97 56 144
14 47 31 96 38 108 19 29 77 44 118 30 37 -13 53 -41 76 -129 38 -151 138
-291 246 -345 49 -25 54 -26 258 -25 186 1 215 4 271 23 69 24 85 41 118 127
39 102 52 165 57 290 7 176 -40 322 -115 360 -63 32 -133 46 -280 56 -52 4
-96 7 -96 8 -1 0 8 49 19 109 l21 107 36 1 c226 3 419 133 499 336 99 251 -14
548 -254 671 -49 25 -136 50 -190 55 l-40 4 -27 78 c-34 99 -79 172 -148 244
-91 95 -213 166 -335 194 -80 19 -224 19 -304 2z m281 -140 c227 -57 399 -269
407 -502 1 -22 4 -22 80 -18 130 6 229 -31 313 -116 131 -134 152 -330 52
-490 -32 -51 -110 -118 -174 -147 -48 -23 -67 -26 -155 -25 -55 1 -111 3 -125
5 -22 3 -25 -2 -37 -52 -7 -30 -15 -68 -18 -85 -2 -16 -7 -41 -10 -55 -3 -14
-11 -56 -18 -95 l-13 -70 -108 -3 -107 -3 6 88 c4 48 8 104 10 123 2 19 7 79
11 133 l7 97 -39 1 c-22 0 -51 3 -66 5 -36 6 -35 10 -54 -281 -4 -49 -8 -96
-9 -105 -2 -8 -4 -25 -4 -37 -1 -22 -5 -23 -81 -23 -69 0 -80 2 -81 18 -1 9
-3 33 -4 52 -2 19 -6 62 -8 95 -10 127 -20 231 -23 245 -1 8 -3 18 -3 22 -1 4
-18 6 -38 4 -21 -3 -51 -5 -67 -5 l-28 -1 6 -97 c8 -104 11 -145 21 -260 l6
-73 -105 0 -105 0 -10 38 c-5 20 -13 55 -17 77 -4 22 -8 42 -9 45 0 3 -9 51
-20 108 l-19 103 -36 -8 c-19 -4 -75 -7 -125 -7 -77 0 -98 5 -149 29 -201 96
-289 325 -198 519 74 158 216 240 398 231 l74 -4 1 27 c2 72 39 193 80 257 85
136 215 223 374 250 79 13 134 10 217 -10z m-548 -1771 c37 -8 84 -21 102 -30
48 -23 100 -78 114 -119 29 -88 12 -216 -44 -330 -42 -85 -101 -146 -175 -183
-51 -25 -66 -27 -171 -27 -258 1 -331 38 -361 180 -18 83 -23 143 -22 235 1
190 37 241 196 275 83 17 276 17 361 -1z m1181 4 c126 -22 181 -64 200 -154
11 -48 13 -198 4 -255 -5 -30 -11 -70 -14 -89 -23 -151 -122 -202 -380 -196
-118 2 -168 21 -240 87 -110 102 -176 311 -139 439 24 83 115 148 234 169 67
11 266 11 335 -1z m-625 -68 c-40 -51 -82 -73 -136 -72 -61 2 -106 23 -143 71
l-33 41 172 0 172 0 -32 -40z"/>
</g>
</svg>
